<svg xmlns="http://www.w3.org/2000/svg" width="214.253" height="214.253" viewBox="0 0 214.253 214.253">
  <g id="Circus" transform="translate(-770 -294.72)">
    <path id="Circus_State" data-name="Circus State" d="M142.835,214.253h0l-6.126-6.126h12.253l-6.126,6.126Zm-71.418,0h0l-6.126-6.126H77.544l-6.126,6.126Zm86.209-6.126h-8.665l8.665-8.665v8.664Zm-20.918,0H77.544l29.583-29.583h0L86.209,157.627h41.835l-20.917,20.917,29.581,29.581Zm-71.418,0H56.627v-8.662l8.663,8.661Zm-8.664-8.664,0,0L14.792,157.627H56.627v41.836Zm101,0V157.627H128.044l29.583-29.583v29.583h41.835L157.629,199.46Zm50.5-41.835h-8.665l8.665-8.665v8.664Zm-121.918,0H56.627v-29.58l29.58,29.578Zm-71.418,0H6.126v-8.663l8.663,8.661Zm-8.665-8.665,0,0L0,142.835l6.126-6.126v12.253Zm202,0V136.709l6.126,6.126-6.125,6.125Zm0-12.253,0,0-29.581-29.581,29.583-29.583v59.165Zm-202,0V77.546l29.583,29.581L6.128,136.707Zm50.5-8.664,0,0L35.709,107.127,56.627,86.208v41.837Zm101,0V86.209l0,0L128.044,56.626h29.583V86.209l20.917,20.917-20.916,20.916Zm-101-41.836V56.626H14.792L56.627,14.791V56.626H86.209l-29.58,29.58Zm-50.5-8.664,0,0L0,71.418l6.126-6.126V77.544Zm202,0V65.291l6.126,6.126-6.125,6.125Zm0-12.253,0,0-8.663-8.664H157.627V14.792l0,0-8.664-8.663h8.665v8.665L199.46,56.624l0,0h8.665v8.665Zm-202,0V56.626h8.665L6.128,65.29Zm121.918-8.665H86.209l20.917-20.917h0L77.544,6.126h59.165L107.127,35.709h0l20.915,20.915ZM56.627,14.791V6.126h8.664l-8.663,8.663Zm92.335-8.664H136.709L142.835,0l6.125,6.125Zm-71.418,0H65.291L71.418,0l6.125,6.125Z" transform="translate(770 294.72)" fill="#fff"/>
    <text id="R" transform="translate(848.127 431.847)" fill="#fff" font-size="80" font-family="SegoePrint, Segoe Print"><tspan x="0" y="0">R</tspan></text>
  </g>
</svg>
