<svg xmlns="http://www.w3.org/2000/svg" xmlns:xlink="http://www.w3.org/1999/xlink" width="536.494" height="465.814" viewBox="0 0 536.494 465.814">
  <defs>
    <linearGradient id="linear-gradient" x1="16.116" y1="0.5" x2="17.116" y2="0.5" gradientUnits="objectBoundingBox">
      <stop offset="0" stop-color="#ffe2c4"/>
      <stop offset="1" stop-color="#ffb870"/>
    </linearGradient>
    <linearGradient id="linear-gradient-2" x1="32.786" y1="0.5" x2="33.786" y2="0.5" xlink:href="#linear-gradient"/>
    <linearGradient id="linear-gradient-3" x1="11.902" y1="0.5" x2="12.902" y2="0.5" xlink:href="#linear-gradient"/>
    <linearGradient id="linear-gradient-4" x1="41.126" y1="0.5" x2="42.126" y2="0.5" xlink:href="#linear-gradient"/>
    <linearGradient id="linear-gradient-5" x1="22.395" y1="0.5" x2="23.395" y2="0.5" xlink:href="#linear-gradient"/>
    <linearGradient id="linear-gradient-6" x1="-0.12" y1="0.408" x2="1.118" y2="0.643" xlink:href="#linear-gradient"/>
    <linearGradient id="linear-gradient-7" x1="-4.933" y1="0.5" x2="-3.414" y2="0.5" gradientUnits="objectBoundingBox">
      <stop offset="0" stop-color="#fff"/>
      <stop offset="0.717" stop-color="#efefef"/>
      <stop offset="1" stop-color="#e8e8e8"/>
    </linearGradient>
    <linearGradient id="linear-gradient-8" x1="-4.776" y1="1.051" x2="-3.833" y2="1.051" xlink:href="#linear-gradient"/>
    <linearGradient id="linear-gradient-9" x1="-14.173" y1="0.5" x2="-13.173" y2="0.5" xlink:href="#linear-gradient"/>
    <linearGradient id="linear-gradient-10" y1="0.5" x2="1" y2="0.5" gradientUnits="objectBoundingBox">
      <stop offset="0" stop-color="#242424"/>
      <stop offset="0.683" stop-color="#696969"/>
      <stop offset="1" stop-color="#3d3d3d"/>
    </linearGradient>
    <linearGradient id="linear-gradient-11" x1="1.094" y1="-0.861" x2="0.217" y2="-0.861" xlink:href="#linear-gradient"/>
    <linearGradient id="linear-gradient-12" x1="0.965" y1="0.421" x2="0.023" y2="0.632" gradientUnits="objectBoundingBox">
      <stop offset="0" stop-color="#ffb870"/>
      <stop offset="1" stop-color="#ffe2c4"/>
    </linearGradient>
    <linearGradient id="linear-gradient-13" x1="0.972" y1="0.454" x2="-0.004" y2="0.549" xlink:href="#linear-gradient-12"/>
  </defs>
  <g id="education" transform="translate(-48.881 -75.377)">
    <g id="Group_64" data-name="Group 64" transform="translate(48.881 75.377)">
      <g id="Group_59" data-name="Group 59" transform="translate(7.748)">
        <g id="Group_29" data-name="Group 29">
          <g id="Group_7" data-name="Group 7">
            <path id="Path_25" data-name="Path 25" d="M345.278,78.154,61.356,453.209l-6.666-2.777V239.3L338.613,75.377ZM64.921,432.708,328.379,280.6V93.1L64.921,245.207Z" transform="translate(-54.69 -75.377)" fill="#bc7c28"/>
            <g id="Group_6" data-name="Group 6" transform="translate(6.666 2.777)">
              <path id="Path_26" data-name="Path 26" d="M337.215,283.421,63.523,441.436V242.118L337.215,84.1Z" transform="translate(-58.408 -75.242)" fill="#2d2d2d"/>
              <path id="Path_27" data-name="Path 27" d="M327.772,89.555V276.939L63.523,429.5v11.934L337.215,283.421V84.1Z" transform="translate(-58.408 -75.242)" fill="#99611d"/>
              <path id="Path_28" data-name="Path 28" d="M343.609,288.592,59.688,452.514V241.382L343.609,77.459Zm-273.69,146.2L333.377,282.684V95.182L69.919,247.291Z" transform="translate(-59.688 -77.459)" fill="#d82"/>
              <g id="Group_5" data-name="Group 5" transform="translate(6.31 9.824)">
                <path id="Path_29" data-name="Path 29" d="M336.489,84.824l-4.692,7.9V280.226L68.468,432.259l-4.05,7.754,272.07-157.08Z" transform="translate(-64.419 -84.824)" fill="#d82"/>
              </g>
            </g>
          </g>
          <g id="Group_8" data-name="Group 8" transform="translate(150.598 111.817)" style="mix-blend-mode: multiply;isolation: isolate">
            <path id="Path_30" data-name="Path 30" d="M203.343,190.054a3.672,3.672,0,0,0,.437.842C204.007,191.06,203.632,190.485,203.343,190.054Z" transform="translate(-155.671 -148.918)" fill="#bcbcbc"/>
            <path id="Path_31" data-name="Path 31" d="M239.209,199.921c2.086-2.465,3.752-8.139-4.113-11.51s-9.875-6.05-9.875-6.05a18.1,18.1,0,0,0-3.593,5.743,1.725,1.725,0,0,0,1.327,2.289l0,0a6.048,6.048,0,0,0-1.25.6,7.789,7.789,0,0,1-.568-1.2c-2.1-5.889-.784-18.043-.784-18.043s-.568.107-1.391.311a4.686,4.686,0,0,1-.257-3.226c.005-.021.009-.044.013-.064l1.19-1-.864-.864c.316-2.189.4-4.136.4-4.136l-5.323-1.943a5.137,5.137,0,0,0-1.052.107l-.8-.8-2.083-.926.695,2.177,1.335,1.547c-.3-.112-.516.363-.548,1.693-.047,1.9-.464,3.657,1.179,5.183a7.421,7.421,0,0,1,1.7,3.8,4.489,4.489,0,0,0-1.7,1.342c2.419,9.083.739,21.511,2.361,25.25q.222.292.723.958a15.027,15.027,0,0,0,.489,7.086,3.719,3.719,0,0,0,3.8.428l-15.04,6.664a44.289,44.289,0,0,0-5.617,2.637l-9.628-17.046L167.6,213.551l7.169,12.692c-.191.435-2.686,6.5,1.7,14.533a4.8,4.8,0,0,0-1.114,1.066c4.3,15.2,11.47,20.572,16.313,20.814a102.427,102.427,0,0,0-2.916,10.694c.586.295,1.167.57,1.747.835-1.44,9.578-3.5,22.659-4.667,27.386-.177.712.063,16.389.252,29.863.017,1.23,18.169,18.65,18.186,19.831l7.923.846-16.113-26.446,3.225-17.2c.435-1.018,1.3-2.615,2.363-4.487-.015,1.689.716,9.171,1.569,17.551.457,4.5,23.368,16.592,24.305,18.193H236c0-1.762-22.4-18.589-22.077-24.363.3-5.242.517-9.075.556-9.436,1.172-10.98,11.244-20.441,11.841-22.777a34.844,34.844,0,0,0,.94-7.566,22.186,22.186,0,0,0,3.58-1.7s-1.484-13.006-3.923-17.479-.324-13.793,2.869-21.73,1.388-20.012-1.084-21.007c-.26-.1-.538-.2-.826-.284-1.235-1.158,10.545-3.749,7.689-6.578C237.989,203.891,240.46,200.959,239.209,199.921Zm-26.358-34.183c-.2-.62.251-1.452-.159-2.254l1.234,1.43C213.715,165.657,213,166.208,212.851,165.738ZM181.093,238.6s.045-.405.087-1l.468.827C181.484,238.469,181.3,238.527,181.093,238.6Zm8.706,11.521c-1.251,1.1-3.724-3.5-5.478-7.3l6.158-3.478C191.436,243.718,191.732,248.417,189.8,250.117Z" transform="translate(-167.601 -159.212)" fill="#bcbcbc"/>
          </g>
          <g id="Group_12" data-name="Group 12" transform="translate(87.458 80.117)">
            <g id="Group_9" data-name="Group 9" transform="translate(18.725 30.921)" opacity="0.5">
              <path id="Path_32" data-name="Path 32" d="M135.124,206.674l-.823-.747c2.379-2.618,5.51-3.253,8.535-3.867a19.157,19.157,0,0,0,5.439-1.657,11.216,11.216,0,0,0,3.321-3c1.423-1.714,2.777-3.342,6.017-3.314.457,0,.82.02,1.124.036,1.044.055,1.259.064,2.622-.835.712-.47,1.387-.975,2.039-1.463a21.76,21.76,0,0,1,4.188-2.656c.616-.275,1.212-.534,1.793-.787,4.027-1.749,7.209-3.129,10.391-7.19.728-.93,1.306-1.751,1.815-2.474,2.13-3.026,3.1-4.4,8.256-4.163,3.39.164,4.667-.706,6.784-2.139.616-.419,1.291-.875,2.094-1.359a13.447,13.447,0,0,1,1.869-.887A10.059,10.059,0,0,0,202.7,169.1a15.55,15.55,0,0,0,1.681-1.458,7.807,7.807,0,0,1,3.976-2.445,9.511,9.511,0,0,1,2.437-.084,6.192,6.192,0,0,0,2.846-.276,5.413,5.413,0,0,0,2.37-2.314,10.507,10.507,0,0,1,1.5-1.891,6.759,6.759,0,0,1,4.393-2l.141,1.1a5.729,5.729,0,0,0-3.772,1.709,9.769,9.769,0,0,0-1.34,1.7,6.447,6.447,0,0,1-2.857,2.718,7.143,7.143,0,0,1-3.338.363,8.638,8.638,0,0,0-2.158.063,6.75,6.75,0,0,0-3.429,2.157,16.247,16.247,0,0,1-1.8,1.561,11.177,11.177,0,0,1-2.331,1.191,12.362,12.362,0,0,0-1.719.811c-.783.472-1.442.92-2.043,1.327-2.147,1.456-3.7,2.5-7.46,2.33-4.537-.213-5.236.77-7.293,3.692-.518.735-1.106,1.569-1.851,2.521-3.357,4.283-6.652,5.714-10.822,7.525-.576.251-1.17.508-1.782.782a20.645,20.645,0,0,0-3.976,2.529c-.664.5-1.352,1.014-2.093,1.5-1.6,1.051-2.029,1.08-3.29,1.016-.291-.015-.638-.032-1.074-.035h-.047c-2.689,0-3.759,1.287-5.111,2.914a12.329,12.329,0,0,1-3.644,3.272,20.375,20.375,0,0,1-5.749,1.769C140.075,203.755,137.258,204.326,135.124,206.674Z" transform="translate(-134.301 -158.628)" fill="#fff"/>
            </g>
            <g id="Group_10" data-name="Group 10" transform="translate(0 2.564)" opacity="0.5">
              <path id="Path_33" data-name="Path 33" d="M120.762,214.45l-.5-.994a55.722,55.722,0,0,0,5.171-3.116c3.51-2.285,7.144-4.646,11.01-5.274a34.513,34.513,0,0,1,4.087-.352c2.589-.116,5.035-.225,7.644-1.735,2.171-1.258,3.5-3.26,4.912-5.379,1.562-2.349,3.176-4.778,6.027-6.118.814-.384,1.653-.7,2.463-1a18.145,18.145,0,0,0,4.179-1.993,29.6,29.6,0,0,0,2.936-2.478,19.316,19.316,0,0,1,5.1-3.759,5.826,5.826,0,0,1,2.573-.348,5.71,5.71,0,0,0,1.9-.167,7.881,7.881,0,0,0,2.748-2.081,12.7,12.7,0,0,1,1.958-1.711,9.113,9.113,0,0,1,3.573-1.272c.372-.075.766-.151,1.191-.252a13.388,13.388,0,0,0,4.824-2.43c.578-.4,1.174-.815,1.83-1.218a6.887,6.887,0,0,1,2.725-.875,8.1,8.1,0,0,0,1.8-.439,15.213,15.213,0,0,0,3.659-2.342c.6-.472,1.226-.958,1.879-1.4,5.155-3.444,10.7-6.4,16.069-9.262,2.317-1.236,4.636-2.473,6.934-3.752.711-.395,1.455-.775,2.21-1.16A38.044,38.044,0,0,0,234.129,151a22.063,22.063,0,0,1,4.587-2.259,24.863,24.863,0,0,0,3.916-1.833c1.87-1.151,3.679-2.318,5.476-3.48,3.15-2.034,6.407-4.136,9.893-6.066l.538.972c-3.45,1.91-6.692,4-9.829,6.027-1.8,1.166-3.618,2.337-5.5,3.493a25.761,25.761,0,0,1-4.087,1.918,20.93,20.93,0,0,0-4.364,2.139,39.032,39.032,0,0,1-4.594,2.618c-.744.379-1.475.754-2.175,1.143-2.3,1.282-4.628,2.52-6.952,3.759-5.343,2.849-10.866,5.794-15.975,9.206-.62.415-1.226.888-1.814,1.347a16.293,16.293,0,0,1-3.928,2.5,9.108,9.108,0,0,1-2.039.5,5.936,5.936,0,0,0-2.322.726c-.638.392-1.215.794-1.777,1.183a14.453,14.453,0,0,1-5.2,2.6c-.439.1-.846.184-1.232.259a8.139,8.139,0,0,0-3.185,1.119,11.626,11.626,0,0,0-1.774,1.562,8.608,8.608,0,0,1-3.2,2.354,6.7,6.7,0,0,1-2.254.219,4.958,4.958,0,0,0-2.11.257,18.537,18.537,0,0,0-4.788,3.556,31.135,31.135,0,0,1-3.05,2.57,19.2,19.2,0,0,1-4.425,2.122c-.79.3-1.609.606-2.382.968-2.57,1.21-4.029,3.405-5.575,5.729-1.418,2.133-2.885,4.339-5.282,5.726-2.841,1.647-5.419,1.762-8.149,1.883a33.782,33.782,0,0,0-3.959.339c-3.635.591-7.166,2.886-10.582,5.108A56.638,56.638,0,0,1,120.762,214.45Z" transform="translate(-120.262 -137.367)" fill="#fff"/>
            </g>
            <g id="Group_11" data-name="Group 11" transform="translate(24.859)" opacity="0.5">
              <path id="Path_34" data-name="Path 34" d="M139.674,192.22l-.774-.8c5.146-4.991,12.643-6.673,19.258-8.156.767-.172,1.525-.341,2.269-.515,2.426-.564,4.212-2.274,6.1-4.085.788-.755,1.6-1.535,2.459-2.213.736-.582,1.472-1.18,2.209-1.781,1.933-1.573,3.932-3.2,6-4.577a45.743,45.743,0,0,1,5.322-2.918,39.992,39.992,0,0,0,5.846-3.293,61.865,61.865,0,0,1,9.951-5.538c1.127-.536,2.263-1.079,3.412-1.657A38.491,38.491,0,0,0,209.9,151.5c.638-.559,1.242-1.191,1.882-1.858a18.127,18.127,0,0,1,3.839-3.325,18.828,18.828,0,0,1,3.864-1.566,16.8,16.8,0,0,0,3.887-1.609,31.14,31.14,0,0,1,7.117-3.232,16.685,16.685,0,0,0,3.639-1.985,13.671,13.671,0,0,1,5.347-2.482l.161,1.1a12.63,12.63,0,0,0-4.9,2.311,17.842,17.842,0,0,1-3.889,2.107,30.253,30.253,0,0,0-6.893,3.125,17.923,17.923,0,0,1-4.131,1.722,17.818,17.818,0,0,0-3.645,1.467,17.391,17.391,0,0,0-3.592,3.133c-.628.655-1.278,1.332-1.951,1.925a39.482,39.482,0,0,1-8.405,5.344c-1.155.582-2.3,1.127-3.43,1.667a61,61,0,0,0-9.782,5.435,40.826,40.826,0,0,1-6.006,3.39,44.783,44.783,0,0,0-5.194,2.844c-2.022,1.35-4,2.96-5.913,4.516-.742.6-1.482,1.2-2.221,1.791-.816.644-1.61,1.406-2.381,2.142-1.915,1.835-3.9,3.733-6.62,4.367-.747.173-1.507.343-2.278.515C151.93,185.8,144.594,187.445,139.674,192.22Z" transform="translate(-138.9 -135.445)" fill="#fff"/>
            </g>
          </g>
          <g id="Group_22" data-name="Group 22" transform="translate(219.533 109.721)">
            <path id="Path_35" data-name="Path 35" d="M267.626,306.15c-.792-2.821-2.318-2.9-2.318-2.9-.967-.61-4.083-7.514-6.2-14.737-1.981-6.746-8.081-8.858-13.847-14.167,1.192-.269,2.361-.566,3.48-.883a148.843,148.843,0,0,1-1.027-26.639c.337-6.342,3.472-12.3,5.518-15.808,2.822-4.832-.8-7.972-2.988-11.446,5.5.451,9.837.524,9.809.036-.072-1.174,1.078-12.553,1.079-12.565a3.174,3.174,0,0,1,.411.252s.4-7.485.127-11.715c.029-.076.071-.151.1-.225,7.979-23.565,3.146-32.263-5.014-33.3a7.7,7.7,0,0,0-7.277,3.15s-7.593,4.966-3.763,27.724a2.119,2.119,0,0,0,.289,1.01H232.573c-1.53-4.183-2.9-7.948-3.241-8.9-.844-2.381-3.845-3.288-3.78-3.775s.91-1,1.729-1.243c-.706-1.539-3.218.413-3.218.413s-1.183-.2-.844-1.042,1.119-1.618,1.246-1.3.111.743.453.292-.348-1.494-1-1.131a8.145,8.145,0,0,0-1.659,1.937s.324-2.066,1.05-2.465,1.168-.719.405-1.182c-1.869.273-2.5,2.954-2.5,2.954a1.459,1.459,0,0,1-.38-1.416c1.363-3.344.217-3.065.217-3.065a10.744,10.744,0,0,0-1.77,5.48c-.077,3.133,6.588,5.823,7.687,7.688a54.71,54.71,0,0,1,2.114,6.756h0V207.95c-2.066,1.254-4.228,5.857,0,8v6.019h6.383c-2.4,6.231-5.151,14.386-4.826,23.26.228,6.169,1.274,18.326,2.391,30.174a28.414,28.414,0,0,0,3.546.112c1.965,11.057,2.906,32.928,2.521,37.219-.391,4.369-4.91,8.191-4.91,8.191l-3.158.493-.441.878a24.155,24.155,0,0,0,5.292.64c1.894-.129,6.453-.352,6.453-.352l.782-2.913a5.48,5.48,0,0,0-.184-4.155l.1-.125a.408.408,0,0,1-.268-.143,1.794,1.794,0,0,0-.156-.2c-.364-.572-.808-2.109-.634-6.255.265-6.313,5.018-16.377,2.9-27.3,6.782,8.878,15.96,21.186,17.468,23.848,1.722,2.375,1.027,6.093.76,7.218a2.154,2.154,0,0,1-.293-.237s-.972,3.925-1.989,4.157c.312.756,2.082.674,3.791-.491,1.7-1.1,4.608-4.763,4.608-4.763S268.413,308.967,267.626,306.15ZM252.6,187.47a4.3,4.3,0,0,1-.073,2.3,6.666,6.666,0,0,0,.06-2.307Zm-3.422,26.153v-.473c1.059-3.881,3.765-7.728,6.237-10.912.164-.1.324-.219.486-.327-.168,3.48-.157,6.757-.157,6.757a7.377,7.377,0,0,1,.658-.712l-.559,6.211A49.931,49.931,0,0,0,249.179,213.622Zm11.868-6.628.008,0ZM235.716,321.707c.047.007.088.02.135.025C235.8,321.726,235.762,321.715,235.716,321.707Zm.281.032a2.013,2.013,0,0,0,.388-.015A1.81,1.81,0,0,1,236,321.739Zm.512-.043a2.535,2.535,0,0,0,.3-.089c-.024.011-.053.032-.075.04A1.52,1.52,0,0,1,236.509,321.7Zm27.168-8.9a4.04,4.04,0,0,0,1.23-.5.818.818,0,0,1-.091.127A1.209,1.209,0,0,1,263.677,312.8Z" transform="translate(-219.285 -156.185)" fill="#bcbcbc" style="mix-blend-mode: multiply;isolation: isolate"/>
            <g id="Group_21" data-name="Group 21" transform="translate(8.003)">
              <path id="Path_36" data-name="Path 36" d="M237.077,293.808c11.148,6.435,29.222,6.433,40.372,0s11.149-16.874,0-23.31-29.224-6.438-40.372,0S225.928,287.371,237.077,293.808Z" transform="translate(-224.14 -121.584)" fill="#eaeaea" style="mix-blend-mode: multiply;isolation: isolate"/>
              <g id="Group_20" data-name="Group 20">
                <g id="Group_13" data-name="Group 13" transform="translate(0 12.433)">
                  <path id="Path_37" data-name="Path 37" d="M250.92,192.525s-4.268,15.4-7.15,19.488-2.952-1.813-3.5-3.867-6.2-25.6-7.3-27.534-7.764-4.719-7.687-7.964a11.382,11.382,0,0,1,1.77-5.679s1.146-.291-.217,3.176a1.544,1.544,0,0,0,.38,1.467s.63-2.78,2.5-3.061c.763.48.317.814-.405,1.224s-1.05,2.553-1.05,2.553a8.373,8.373,0,0,1,1.659-2.006c.648-.375,1.328.7,1,1.172s-.331.032-.453-.3-.907.472-1.246,1.35.844,1.079.844,1.079,2.513-2.022,3.218-.428c-.819.248-1.655.782-1.729,1.29s2.936,1.444,3.78,3.911,8.219,23.294,8.219,23.294l4.714-9.3S251.279,190.486,250.92,192.525Z" transform="translate(-225.285 -166.962)" fill="url(#linear-gradient)"/>
                </g>
                <g id="Group_19" data-name="Group 19" transform="translate(11.308)">
                  <g id="Group_18" data-name="Group 18">
                    <g id="Group_16" data-name="Group 16" transform="translate(0 83.212)">
                      <g id="Group_14" data-name="Group 14">
                        <path id="Path_38" data-name="Path 38" d="M235.76,224.3a232.633,232.633,0,0,0,3.22,29.514c2.037,11.241,3.018,34.655,2.628,39.181s-4.91,8.489-4.91,8.489a2.571,2.571,0,0,0,2.79.655c1.527-.707,6.057-6.39,6.057-6.39s-1.34.127-1.058-6.834,5.658-18.339,2.406-30.5-3.229-38.381-3.229-38.381Z" transform="translate(-233.098 -220.029)" fill="url(#linear-gradient-2)"/>
                        <path id="Path_39" data-name="Path 39" d="M245.784,276.532s1.392,1.382.507,4.791l-.782,3.02s-4.559.229-6.453.364a23.412,23.412,0,0,1-5.292-.664l.441-.91,3.158-.509s1.29,1.232,2.541.751S245.784,276.532,245.784,276.532Z" transform="translate(-233.764 -201.17)" fill="#3d3d3d"/>
                      </g>
                      <g id="Group_15" data-name="Group 15" transform="translate(3.925 6.085)">
                        <path id="Path_40" data-name="Path 40" d="M236.707,225.689s.788,21.05,3.148,23.846,22.4,30.082,24.689,34.277c2.047,2.926.675,7.835.675,7.835s2.3-.112,2.98-1.959-.651-7.8-.7-8.039c-.967-.631-4.083-7.787-6.2-15.269s-8.958-9.46-15.057-15.889c-2.714-2.022-2.006-3.555-1.05-6.956s1.693-17.474,1.436-18.587S236.707,225.689,236.707,225.689Z" transform="translate(-236.707 -224.591)" fill="url(#linear-gradient-3)"/>
                        <path id="Path_41" data-name="Path 41" d="M260.91,267.37s1.526.081,2.318,3,1.607,5.256,1.607,5.256-2.9,3.795-4.608,4.936c-1.709,1.206-3.48,1.29-3.791.508,1.016-.24,1.989-4.308,1.989-4.308a1.349,1.349,0,0,0,1.993.107C261.413,275.867,261.353,269.045,260.91,267.37Z" transform="translate(-230.122 -210.313)" fill="#3d3d3d"/>
                      </g>
                    </g>
                    <path id="Path_42" data-name="Path 42" d="M236.2,267.336c-1.118-12.276-2.163-24.871-2.391-31.264-.526-14.84,6.966-27.749,8.051-33.448s.4-9.272.6-11.616,6.255-6.613,9.763-8.427,10.78-1.562,10.78-1.562c2.322-.008,1.517,2.551-1.4,6.511s-8.539,10.382-9.567,16.677,8.448,9.873,4.352,17.14c-2.046,3.632-5.18,9.807-5.518,16.379a159.777,159.777,0,0,0,1.027,27.6C247.064,266.744,241.375,267.881,236.2,267.336Z" transform="translate(-233.758 -149.842)" fill="#19bf83"/>
                    <path id="Path_43" data-name="Path 43" d="M252.619,198.2s-.041-13.215,1.334-15.194,3.124-2.82,4.132-1.122.333,14.89.333,14.89S255.557,194.433,252.619,198.2Z" transform="translate(-227.471 -149.853)" fill="#19bf83"/>
                    <path id="Path_44" data-name="Path 44" d="M257.558,171.888s-2.644,8.727-2.193,12.2c-1.042,1.906-8.1,4.167-6.533,1.227,1.466-1.843,2.534-4.335,1.963-6.15C251.727,177.858,257.558,171.888,257.558,171.888Z" transform="translate(-228.81 -152.886)" fill="url(#linear-gradient-4)"/>
                    <g id="Group_17" data-name="Group 17" transform="translate(14.039)">
                      <path id="Path_45" data-name="Path 45" d="M262.191,171.612c-.385,7.392-5.991,13.107-8.891,12.958-2.63-.137-7.883-6.415-7.5-13.809s4.363-13.191,8.886-12.958S262.571,164.22,262.191,171.612Z" transform="translate(-243.792 -157.589)" fill="url(#linear-gradient-5)"/>
                      <path id="Path_46" data-name="Path 46" d="M249.621,164.585a27.365,27.365,0,0,0,10.451,5.134c2.253.884-8.968,28.543-12.428,31.865,3.076,1.352,12.076-4.192,13.778-9.388,7.979-24.417,3.146-33.43-5.015-34.509a7.631,7.631,0,0,0-7.276,3.265s-7.593,5.144-3.763,28.724c.2,4.293,7.869.688,6.868-5.758C249.407,181.7,246.14,171.037,249.621,164.585Z" transform="translate(-244.289 -157.641)" fill="#513b20"/>
                    </g>
                  </g>
                </g>
              </g>
            </g>
          </g>
          <g id="Group_28" data-name="Group 28" transform="translate(172.123 110.894)">
            <g id="Group_23" data-name="Group 23" transform="translate(21.727)">
              <path id="Path_47" data-name="Path 47" d="M208.937,171.631s-1.342-1.066-.74-3.888a43,43,0,0,0,.74-6.065l-5.324-1.945s-1.158,0-1.272.232a11.57,11.57,0,0,0,1.042,2.962c.463,1.066-.832,2.361-1.042,1.714s.3-1.527-.208-2.361-.926-.648-.971,1.25-.464,3.656,1.179,5.184,1.922,5.37,1.922,5.37Z" transform="translate(-199.679 -158.115)" fill="url(#linear-gradient-6)"/>
              <path id="Path_48" data-name="Path 48" d="M238.74,211.242S219,193.012,216.9,187.124s-7.373-19.2-7.373-19.2-6.175,1.151-7.505,3.2c2.794,10.5,8.918,27.008,9.448,27.39s-2.262-3.328.534.384,13.307,17.664,14.373,18.049S238.74,211.242,238.74,211.242Z" transform="translate(-199.363 -155.381)" fill="#ff669d"/>
              <path id="Path_49" data-name="Path 49" d="M202.112,159.447l7.638,7.638-2.037,1.711-6.989-8.1-.694-2.175Z" transform="translate(-200.029 -158.52)" fill="#fff"/>
            </g>
            <g id="Group_27" data-name="Group 27" transform="translate(0 24.305)">
              <path id="Path_50" data-name="Path 50" d="M192.11,315.77c9.586,5.534,25.123,5.534,34.71,0s9.584-14.506,0-20.037-25.124-5.533-34.71,0S182.525,310.237,192.11,315.77Z" transform="translate(-183.345 -138.413)" fill="#e8e8e8" style="mix-blend-mode: multiply;isolation: isolate"/>
              <g id="Group_26" data-name="Group 26">
                <path id="Path_51" data-name="Path 51" d="M204.508,303.163s.566,4.331.176,5.322-2.714.786-3.581.54c-2.856-.808-9.719-4.211-9.544-7.034.067-1.151,1.8-1.036,4.6.269s4.379,1.083,4.742.273S204.508,303.163,204.508,303.163Z" transform="translate(-181.131 -135.203)" fill="#2d2d2d"/>
                <path id="Path_52" data-name="Path 52" d="M219.533,301.632s.564,4.331.172,5.322-2.708.783-3.58.535c-2.85-.806-9.721-4.207-9.546-7.033.072-1.148,1.807-1.039,4.6.268s4.38,1.086,4.743.273S219.533,301.632,219.533,301.632Z" transform="translate(-176.117 -135.716)" fill="#2d2d2d"/>
                <g id="Group_25" data-name="Group 25">
                  <g id="Group_24" data-name="Group 24">
                    <path id="Path_53" data-name="Path 53" d="M219.66,322.6c.263-3.831,2.306-41.528,2.434-42.7,1.172-10.98,11.242-20.441,11.841-22.777,2.171-8.495,0-19.929,0-19.929l-19.832.831a196.633,196.633,0,0,0-4.823,39.924c-.037,3.975,4.125,40.611,4.16,44.483Z" transform="translate(-175.215 -156.567)" fill="#162b87"/>
                    <path id="Path_54" data-name="Path 54" d="M210.9,282.439c1.693-3.955,9.8-16.649,11.5-20.376,7.963-15.037,6.079-23.891,6.079-23.891l-24.777-.982s-4.347,30.557-6.275,38.353c-.311,1.244.656,48.185.392,49.212l5.054.482Z" transform="translate(-179.193 -156.567)" fill="#1b2e9b"/>
                    <rect id="Rectangle_25" data-name="Rectangle 25" width="25.656" height="33.708" transform="translate(0 30.955) rotate(-29.455)" fill="#e8e8e8"/>
                    <rect id="Rectangle_26" data-name="Rectangle 26" width="24.851" height="32.778" transform="translate(0.555 31.074) rotate(-29.456)" fill="url(#linear-gradient-7)"/>
                    <path id="Path_55" data-name="Path 55" d="M220.039,182.8a6.039,6.039,0,0,0-6.732,2.271,3.279,3.279,0,0,0-.77,1.842,8.733,8.733,0,0,1-2.13,4.1c-1.77,2.162-1.507,7.042-.583,9.689a3.721,3.721,0,0,0,3.8.429l-.794,6.637,12.824-1.527s-1.436-3.244,1.674-8.32,3.612-7.979.667-11.054-7.959-4.067-7.959-4.067" transform="translate(-175.274 -174.814)" fill="url(#linear-gradient-8)"/>
                    <path id="Path_56" data-name="Path 56" d="M217.17,176.743s2.011,2.678,9.878,6.049,6.2,9.046,4.112,11.512c2.075,1.723-6.107,8.67-7.28,12.069a10.645,10.645,0,0,1-7.925-3.306,7.779,7.779,0,0,1,1.356-5.914c2.067-2.658,1.2-6.242-.283-5.846-.32.089-2.345,4.735-2.565,4.711a2.492,2.492,0,0,1-.6-.207c-.332-.2.548-1.267.887-3.46.159-1.046-.413-3.562-.156-4.091a21.748,21.748,0,0,1,1.935-2.594l-1.63-.891a1.724,1.724,0,0,1-1.326-2.289,18.124,18.124,0,0,1,3.592-5.743" transform="translate(-173.824 -176.743)" fill="#70380f"/>
                    <path id="Path_57" data-name="Path 57" d="M202.144,210.925s4.684-5.522,14.462-9.166a47.34,47.34,0,0,1,9.783-2.309s8.8-.894,13.16.859c2.471.995,4.273,13.066,1.084,21.007s-5.308,17.255-2.869,21.73,3.921,17.479,3.921,17.479-3.672,2.363-10.786,3.745c0,0-2.247-11.683-2.54-11.683-.153,0-1.172,12.4-1.172,12.4a47.4,47.4,0,0,1-27.59-4.995c1.046-5.878,5.279-17.259,6.4-22.745s-3.856-26.325-3.856-26.325" transform="translate(-178.447 -169.24)" fill="#ff3e7a"/>
                    <path id="Path_58" data-name="Path 58" d="M195.66,221.832a21.081,21.081,0,0,0,0-4.86,4.3,4.3,0,0,1,.85-3.581c.465-.664-.331-2.454-1.789-.86A6.68,6.68,0,0,0,193.063,216l-3.708-6.564s-3.1,6.678,2.161,15.45C194.961,226.655,195.66,221.832,195.66,221.832Z" transform="translate(-182.168 -165.831)" fill="url(#linear-gradient-9)"/>
                    <path id="Path_59" data-name="Path 59" d="M203.34,218.837a10.083,10.083,0,0,1,2.471-10.554,8.126,8.126,0,0,1,2.025-1.43c4.583-2.259,7.743,1.614,7.924,9.946s-.691,20.5-5.491,28.236c-2.937,4.445-14.671,2.493-20.716-18.882,1.529-2.169,6.981-3.629,6.981-3.629s5.4,13.719,7.462,11.9c2.693-2.367,1.063-10.563-.656-15.59" transform="translate(-181.799 -166.905)" fill="#ff669d"/>
                  </g>
                </g>
              </g>
            </g>
          </g>
        </g>
        <g id="Group_39" data-name="Group 39" transform="translate(165.745 107.985)">
          <g id="Group_33" data-name="Group 33" transform="translate(0 75.517)">
            <g id="Group_30" data-name="Group 30" transform="translate(0 21.296)">
              <path id="Path_60" data-name="Path 60" d="M333.5,451.4,193.7,370.685l-14.743-8.438L381.242,262.41l160.717,68.453Z" transform="translate(-178.958 -217.748)" fill="#e8e8e8" style="mix-blend-mode: multiply;isolation: isolate"/>
              <path id="Path_61" data-name="Path 61" d="M343.357,441.4,203.56,360.69V329.36L391.1,252.415,530.9,333.125Z" transform="translate(-170.747 -221.084)" fill="#efc100"/>
              <path id="Path_62" data-name="Path 62" d="M389.362,244.864,208.771,328.656v28.5l132.846,76.7L529.155,325.574Z" transform="translate(-169.007 -223.605)" fill="#e5e5e5"/>
              <path id="Path_63" data-name="Path 63" d="M389.362,239.4,359.42,253.3v89.725H208.771v8.671l132.846,76.7L529.155,320.113Z" transform="translate(-169.007 -225.427)" fill="#f4f4f4"/>
              <path id="Path_64" data-name="Path 64" d="M389.362,234.4,359.42,248.291v96.4H208.771v2l132.846,76.7L529.155,315.11Z" transform="translate(-169.007 -227.098)" fill="#fff"/>
              <path id="Path_65" data-name="Path 65" d="M343.357,417.911,203.56,337.2,391.1,228.925,530.9,309.632Z" transform="translate(-170.747 -228.925)" fill="#ffeb33"/>
            </g>
            <g id="Group_31" data-name="Group 31" transform="translate(54.884 11.143)">
              <path id="Path_66" data-name="Path 66" d="M333.277,393.324l-113.17-65.341V302.617l151.821-62.286L485.1,305.665Z" transform="translate(-220.107 -214.965)" fill="#d11156"/>
              <path id="Path_67" data-name="Path 67" d="M370.52,234.217l-146.2,67.831v23.069L331.87,387.209,483.69,299.552Z" transform="translate(-218.7 -217.005)" fill="#e5e5e5"/>
              <path id="Path_68" data-name="Path 68" d="M370.52,229.8l-24.237,11.245v72.635H224.325V320.7L331.87,382.788,483.69,295.133Z" transform="translate(-218.7 -218.48)" fill="#f4f4f4"/>
              <path id="Path_69" data-name="Path 69" d="M370.52,225.743l-24.237,11.25V315.03H224.325v1.619L331.87,378.739,483.69,291.084Z" transform="translate(-218.7 -219.834)" fill="#fff"/>
              <path id="Path_70" data-name="Path 70" d="M333.277,374.3l-113.17-65.339,151.821-87.653L485.1,286.65Z" transform="translate(-220.107 -221.313)" fill="#ff3e7a"/>
            </g>
            <g id="Group_32" data-name="Group 32" transform="translate(74.493)">
              <path id="Path_71" data-name="Path 71" d="M331.231,359.51,234.81,303.843V282.232l129.354-53.07,96.42,55.664Z" transform="translate(-234.81 -207.549)" fill="#6f18c4"/>
              <path id="Path_72" data-name="Path 72" d="M362.964,223.952,238.4,281.742V301.4l91.628,52.9,129.352-74.68Z" transform="translate(-233.61 -209.288)" fill="#e5e5e5"/>
              <path id="Path_73" data-name="Path 73" d="M362.964,220.186l-20.653,9.584v61.884H238.4v5.98l91.628,52.9,129.352-74.678Z" transform="translate(-233.61 -210.545)" fill="#f4f4f4"/>
              <path id="Path_74" data-name="Path 74" d="M362.964,216.734l-20.653,9.582v66.489H238.4v1.376l91.628,52.9L459.384,272.4Z" transform="translate(-233.61 -211.698)" fill="#fff"/>
              <path id="Path_75" data-name="Path 75" d="M331.231,343.307,234.81,287.64l129.354-74.682,96.42,55.671Z" transform="translate(-234.81 -212.958)" fill="#a247ea"/>
              <path id="Path_76" data-name="Path 76" d="M257.869,269.882l88,50.806,98.595-56.921-88-50.808Z" transform="translate(-227.113 -212.958)" fill="#6c2cb7"/>
            </g>
          </g>
          <g id="Group_38" data-name="Group 38" transform="translate(106.213)">
            <g id="Group_35" data-name="Group 35">
              <path id="Path_77" data-name="Path 77" d="M294.18,207.909v45.312c0,9.319,6.158,18.638,18.474,25.75,24.633,14.223,64.571,14.223,89.207,0,12.319-7.113,18.475-16.435,18.473-25.758v-45.3Z" transform="translate(-246.713 -139.126)" fill="url(#linear-gradient-10)"/>
              <g id="Group_34" data-name="Group 34">
                <path id="Path_78" data-name="Path 78" d="M366.705,268.547,258.592,206.128v-2.991H474.816v2.991Z" transform="translate(-258.592 -140.719)" fill="#282828"/>
                <path id="Path_79" data-name="Path 79" d="M366.705,281.175,258.592,218.758l108.114-62.419,108.111,62.419Z" transform="translate(-258.592 -156.339)" fill="#5b5b5b"/>
              </g>
            </g>
            <g id="Group_37" data-name="Group 37" transform="translate(103.502 59.361)">
              <g id="Group_36" data-name="Group 36" transform="translate(3.773 1.386)">
                <path id="Path_80" data-name="Path 80" d="M399.609,272.15h-3.738V233.712l-56.849-28.485,1.675-3.343L399.609,231.4Z" transform="translate(-339.021 -201.884)" fill="#ffd629"/>
              </g>
              <path id="Path_81" data-name="Path 81" d="M348.528,204.584c0,2.063-2.758,3.737-6.166,3.737s-6.169-1.674-6.169-3.737,2.762-3.739,6.169-3.739S348.528,202.519,348.528,204.584Z" transform="translate(-336.193 -200.845)" fill="#ffd629"/>
              <path id="Path_82" data-name="Path 82" d="M388.565,273.308V254.282a4.347,4.347,0,1,0-8.694,0v19.026Z" transform="translate(-321.615 -184.46)" fill="#fff42c"/>
            </g>
          </g>
        </g>
        <g id="Group_46" data-name="Group 46" transform="translate(64.012 316.707)">
          <path id="Path_83" data-name="Path 83" d="M314.7,411.658l-.032.027c.315-6-3.482-12.068-11.422-16.651l-107.038-61.8-11.133,6.427L153.7,321.547l-33.847,19.542-17.17,10.39,36.863,23.389-12.619,8.1,119.658,69.448c15.269,8.815,40.025,8.815,55.294,0l1.366-.79c7.9-4.56,11.7-10.586,11.428-16.561l.027.009Z" transform="translate(-102.683 -309.919)" fill="#e8e8e8" style="mix-blend-mode: multiply;isolation: isolate"/>
          <g id="Group_45" data-name="Group 45" transform="translate(16.311)">
            <g id="Group_44" data-name="Group 44">
              <g id="Group_42" data-name="Group 42">
                <g id="Group_40" data-name="Group 40" transform="translate(0 23.776)">
                  <path id="Path_84" data-name="Path 84" d="M167,374.67,114.912,344.6V330.655l93.265,20.24Z" transform="translate(-114.912 -330.655)" fill="#878787"/>
                </g>
                <g id="Group_41" data-name="Group 41">
                  <path id="Path_85" data-name="Path 85" d="M167,366.676l-52.086-30.071,41.18-23.776L208.177,342.9Z" transform="translate(-114.912 -312.829)" fill="#c1c1c1"/>
                  <path id="Path_86" data-name="Path 86" d="M130.874,337.248l-7.9-4.559,11.534-6.658,7.9,4.559Z" transform="translate(-112.22 -308.423)" fill="#686868"/>
                  <path id="Path_87" data-name="Path 87" d="M134.512,327.24l6.849,3.954,1.047-.6-7.9-4.559-11.534,6.658,1.046.6Z" transform="translate(-112.22 -308.423)" fill="#4f4f4f"/>
                  <path id="Path_88" data-name="Path 88" d="M145.847,328.6l-7.895-4.559,11.532-6.657,7.9,4.556Z" transform="translate(-107.222 -311.308)" fill="#686868"/>
                  <path id="Path_89" data-name="Path 89" d="M149.485,318.6l6.849,3.952,1.047-.6-7.9-4.556-11.532,6.657,1.046.6Z" transform="translate(-107.222 -311.308)" fill="#4f4f4f"/>
                </g>
              </g>
              <g id="Group_43" data-name="Group 43" transform="translate(27.026 11.688)">
                <path id="Path_90" data-name="Path 90" d="M310.327,391.829l-9.725,9.116c-.555-.364-1.126-.723-1.73-1.071l-163.7-53.756v24.668l107.041,61.8c15.269,8.816,40.024,8.816,55.293,0l1.367-.79c7.9-4.559,11.7-10.586,11.426-16.56l.025.007Z" transform="translate(-135.175 -313.406)" fill="#1b2e9b"/>
                <path id="Path_91" data-name="Path 91" d="M298.873,383.391l-107.037-61.8L135.175,354.3l107.041,61.8c15.269,8.814,40.024,8.814,55.293,0l1.367-.791C314.143,406.5,314.143,392.206,298.873,383.391Z" transform="translate(-135.175 -321.592)" fill="#2231bf"/>
              </g>
            </g>
            <path id="Path_92" data-name="Path 92" d="M260.631,392.465c-9.355,5.4-24.521,5.4-33.878,0s-9.354-14.158,0-19.558,24.523-5.4,33.878,0S269.984,387.065,260.631,392.465Z" transform="translate(-79.924 -294.129)" fill="#5e72ef"/>
          </g>
        </g>
        <g id="Group_56" data-name="Group 56" transform="translate(124.116 300.618)">
          <path id="Path_93" data-name="Path 93" d="M222.187,356.923c0-2.5-5.835-21.007-11.328-24.117h0a30.6,30.6,0,0,0-8.663-8.615,9.139,9.139,0,0,0-.057-1.723c.8-.172,2.261-2.637,2.026-5.188v.005c2.181-12.775-4.425-15.108-7.932-13.762-1.127-1.667-4.939-3.473-6.742-2.466a4.172,4.172,0,0,1,3.871,1.53c-4.515-.762-7.253-.04-10.623,3.041s-3.278,7.368-4.211,7.486c2.294,2,3.474.82,3.474.82s.2.88-1.135,1.455a4.671,4.671,0,0,0,2.146.279c.025.2.049.407.08.619l-.008,0,.008,0a36.312,36.312,0,0,0,.768,3.8c.375,1.448.692,2.778.98,3.995-.143.141-.288.276-.428.428-.049,0-.056.06-.056.06-.088.1-.159.205-.244.308-.177.215-.357.427-.527.662-6.014,7.768-4.047,16.888-7.748,19.957a29.667,29.667,0,0,1-7.544,4.7l-4.864,1.134-6.866-13.09.137,4.06-.137-.184.412,10.517h0c-1.747.165-3.112,5.7-.215,7.365a2.8,2.8,0,0,0,.513.232l.244,6.269,6.437,7.833c-3.793,3.438-7.07,7.3-7.957,10.925-2.414,9.9-1.547,32.833-1.547,32.833s.041.073.1.171c-1.2.92-5.478,4.256-6.514,5.758a1.681,1.681,0,0,0-.22.456h0v0a1.265,1.265,0,0,0,.636,1.516h0a2.3,2.3,0,0,0,.229.115c.04.02.079.039.121.056.068.028.143.049.219.072s.127.037.195.053.145.028.221.04.165.025.252.033.151.012.231.015c.1,0,.2.005.3,0,.08,0,.161-.005.244-.011.111-.008.225-.019.343-.035.084-.011.169-.021.257-.036.125-.021.255-.049.384-.077.089-.021.176-.039.269-.063.139-.036.284-.081.429-.129.091-.028.179-.055.272-.087.163-.057.331-.127.5-.2.083-.033.163-.061.247-.1.256-.112.519-.236.788-.38,4.5-2.375,5.46-3,6.335-3.5a1.481,1.481,0,0,0,.355-.28c.02-.023.043-.047.063-.071a1.082,1.082,0,0,0,.185-.333l0-.019a1.54,1.54,0,0,0,.061-.4c0-.029,0-.056,0-.085a4.956,4.956,0,0,0-.033-.57c.117-.049.2-.088.2-.088l9.962-10.854s-.075-12.707,4.4-14.517c-2.861,3.54-2.2-.97-2.724,2.778-1.4,10.091-1.424,32.049-1.424,32.049s.06.065.151.151c-1.466,1.134-5.284,4.152-6.257,5.558a1.749,1.749,0,0,0-.22.457h0v0a1.268,1.268,0,0,0,.638,1.517h0a2.167,2.167,0,0,0,.229.115c.04.019.077.039.121.056a2.239,2.239,0,0,0,.219.071c.064.019.125.039.193.055s.147.028.221.04.165.025.253.033.151.012.231.015c.1,0,.2.005.3,0,.081,0,.161-.005.245-.011.111-.008.225-.02.343-.035.084-.011.168-.021.257-.037.125-.02.253-.048.384-.076.088-.021.176-.04.268-.063.14-.036.284-.083.431-.129.091-.028.177-.053.272-.087.163-.057.331-.127.5-.2.083-.033.163-.063.245-.1.256-.113.52-.24.79-.381,4.5-2.375,5.46-3,6.335-3.5a1.537,1.537,0,0,0,.353-.28c.021-.024.044-.047.063-.071a1.059,1.059,0,0,0,.187-.333l0-.019a1.6,1.6,0,0,0,.061-.4c0-.029,0-.056,0-.085a10.517,10.517,0,0,0-.129-1.316.578.578,0,0,0-.232-.356c.223-.168,14.191-8.847,14.191-8.847l1.287-23.924s8.417-8.28,11.076-9.179c6.894-2.333,9.677-13.274,9.839-16.92-1.546-6.8,2.319-5.054,2.725-10.182C220.078,359.178,222.187,357.642,222.187,356.923Z" transform="translate(-147.744 -300.766)" fill="#e2e2e2" style="mix-blend-mode: multiply;isolation: isolate"/>
          <g id="Group_55" data-name="Group 55">
            <path id="Path_94" data-name="Path 94" d="M181.828,318.633s.1-.959,2.692,4.795-3.635,24.132-5.112,26.149-20,7.693-24.077,1.4c2.542-1.306.087-3.185.587-6.125,7.566,2.649,15.08-3.377,17.392-5.3C177.165,336.363,174.844,326.594,181.828,318.633Z" transform="translate(-145.215 -294.823)" fill="#ffbd1a"/>
            <g id="Group_52" data-name="Group 52">
              <g id="Group_50" data-name="Group 50" transform="translate(0 62.945)">
                <g id="Group_47" data-name="Group 47" transform="translate(0 54.315)">
                  <path id="Path_95" data-name="Path 95" d="M154.876,388.683s-5.627,4.251-6.836,6,1.416,3.625,5.918,1.25,5.46-3,6.335-3.5.708-1.208.541-2.5S154.876,388.683,154.876,388.683Z" transform="translate(-147.746 -388.683)" fill="#fff"/>
                  <path id="Path_96" data-name="Path 96" d="M160.292,391.112c-.875.5-1.834,1.124-6.335,3.5-3.382,1.783-5.7,1.17-6.138.011-.507,1.589,2.029,2.962,6.138.794,4.5-2.375,5.46-3,6.335-3.5.67-.383.728-.888.646-1.682A1.172,1.172,0,0,1,160.292,391.112Z" transform="translate(-147.744 -388.165)" fill="#4c4c4c"/>
                </g>
                <path id="Path_97" data-name="Path 97" d="M201.4,348.223s-.207,12.715-11.438,15.478a138.791,138.791,0,0,0-23.1,8.485l-7.373,32a5.793,5.793,0,0,1-3.168.507,4.833,4.833,0,0,1-3.507-2.342s-.867-22.936,1.547-32.833S177,347.96,177,347.96Z" transform="translate(-146.106 -347.96)" fill="#4c4c4c"/>
                <g id="Group_49" data-name="Group 49" transform="translate(17.193 7.772)">
                  <g id="Group_48" data-name="Group 48" transform="translate(0 57.615)">
                    <path id="Path_98" data-name="Path 98" d="M167.766,396.984s-5.626,4.252-6.836,6,1.418,3.627,5.919,1.251,5.46-3,6.335-3.5.708-1.208.542-2.5S167.766,396.984,167.766,396.984Z" transform="translate(-160.637 -396.984)" fill="#fff"/>
                    <path id="Path_99" data-name="Path 99" d="M173.183,399.412c-.875.5-1.834,1.126-6.335,3.5-3.382,1.785-5.7,1.17-6.139.012-.505,1.589,2.03,2.962,6.139.794,4.5-2.375,5.46-3,6.335-3.5.67-.383.728-.888.644-1.682A1.166,1.166,0,0,1,173.183,399.412Z" transform="translate(-160.634 -396.466)" fill="#4c4c4c"/>
                  </g>
                  <path id="Path_100" data-name="Path 100" d="M208.644,353.787s1.083,12.67-9.809,16.56a138.95,138.95,0,0,0-22.119,10.788L172.629,412a4.546,4.546,0,0,1-3.272,1.208,4.907,4.907,0,0,1-3.535-1.514s-2.528-23.362-1.13-33.455S181.4,356.272,181.4,356.272Z" transform="translate(-159.423 -353.787)" fill="#5b5b5b"/>
                </g>
              </g>
              <path id="Path_101" data-name="Path 101" d="M169.728,359.627s-1.212-37.983,10.375-42.421,22.2,6.122,26.731,16.348,3.334,28.028,0,34.638C190.94,379.132,169.276,364.879,169.728,359.627Z" transform="translate(-140.422 -295.626)" fill="#ffeb33"/>
              <path id="Path_102" data-name="Path 102" d="M204.5,333.554c-4.529-10.226-15.145-20.784-26.731-16.348a6.9,6.9,0,0,0-1.1.547c8.532,1.084,15.788,9.276,19.326,17.268,4.528,10.226,3.334,28.027,0,34.637a22.427,22.427,0,0,1-4.907,2.549,23.118,23.118,0,0,0,13.41-4.015C207.839,361.582,209.032,343.78,204.5,333.554Z" transform="translate(-138.091 -295.626)" fill="#ffef7b"/>
              <g id="Group_51" data-name="Group 51" transform="translate(30.783)">
                <path id="Path_103" data-name="Path 103" d="M175.4,304.359s-2.892,4.631-.3,14.678c2.106,8.14,2.418,12.644,5.815,12.988s13.572-2.139,12.463-10.614c1.012-.217,3.084-4.095,1.45-7.178s-2.78.287-2.78.287.065-6.718-4.684-9.167S175.4,304.359,175.4,304.359Z" transform="translate(-169.761 -299.71)" fill="url(#linear-gradient-11)"/>
                <path id="Path_104" data-name="Path 104" d="M187.625,313.489c-.019-.389-3.625,4.758-9.422,3.094a3.569,3.569,0,0,0,2.454-2.007,5.126,5.126,0,0,1-5.274,1.714,7.629,7.629,0,0,0,2.107-1.22,5.741,5.741,0,0,1-4.325.32c1.334-.575,1.135-1.455,1.135-1.455s-1.18,1.18-3.474-.82c.932-.119.84-4.4,4.211-7.486s6.109-3.8,10.623-3.041a4.172,4.172,0,0,0-3.871-1.53c1.8-1.007,5.615.8,6.742,2.466,3.506-1.346,10.113.987,7.932,13.762-.036-.321-.336-2.4-1.575-2.792s-2.282,2.042-2,2.658a27.6,27.6,0,0,1,.416,4.26l-1.6.839s.5-3.168-.644-4.123S187.842,318.356,187.625,313.489Z" transform="translate(-170.826 -300.766)" fill="#6d3d09"/>
              </g>
            </g>
            <g id="Group_54" data-name="Group 54" transform="translate(7.335 37.484)">
              <g id="Group_53" data-name="Group 53" transform="translate(1.486)">
                <path id="Path_105" data-name="Path 105" d="M154.359,331.776l6.865,9.213,22.18-5.17-1.274,28.668-20.173-.245-6.644-8.085Z" transform="translate(-154.359 -327.9)" fill="#fff"/>
                <path id="Path_106" data-name="Path 106" d="M154.359,328.87l6.865,13.089.733,23.254-6.644-8.085Z" transform="translate(-154.359 -328.87)" fill="#eaeaea"/>
              </g>
              <path id="Path_107" data-name="Path 107" d="M183.2,347.324s-.683,1.05-2.129,0-1.99-2.834-2.885-3.5c-.109,2.287,0,3.887-2.838,3.835s-4.668-.443-6.281-.331.311,7.236,8.6,7.4c4.568-.283,6.514-2.84,6.514-2.84Z" transform="translate(-148.139 -323.878)" fill="url(#linear-gradient-12)"/>
              <path id="Path_108" data-name="Path 108" d="M155.143,339.661s1.525,3.12,2.47,3.478.212,5.554-2.685,3.887S153.4,339.826,155.143,339.661Z" transform="translate(-153.246 -325.268)" fill="url(#linear-gradient-13)"/>
            </g>
            <path id="Path_109" data-name="Path 109" d="M194.387,329.669s.49-7.808,5.981-4.7S211.7,346.588,211.7,349.088s-25.452,14.894-32.455,12.227a9.833,9.833,0,0,0-.056-8.559c7.669-2.334,17.506-5.335,19.173-7.836S193.458,340.218,194.387,329.669Z" transform="translate(-137.253 -292.932)" fill="#ffbd1a"/>
          </g>
        </g>
        <g id="Group_58" data-name="Group 58" transform="translate(25.696 247.912)">
          <path id="Path_110" data-name="Path 110" d="M149,400.609l-.643,6.226-28.026-2.622L73.956,378.728V266.153h14.4V370.414Z" transform="translate(-73.955 -259.613)" fill="#e8e8e8" style="mix-blend-mode: multiply;isolation: isolate"/>
          <path id="Path_111" data-name="Path 111" d="M73.956,378.728V266.153h14.4V370.414Z" transform="translate(-73.955 -259.613)" fill="#bcbcbc" style="mix-blend-mode: multiply;isolation: isolate"/>
          <g id="Group_57" data-name="Group 57">
            <path id="Path_112" data-name="Path 112" d="M147.808,386.6c.766,1.637,2.05,20.377.552,21.867-1.288,1.264-15.653-12.818-16.419-14.454L74.266,270.55a3.267,3.267,0,0,1,1.577-4.347l9.945-4.646a3.271,3.271,0,0,1,4.345,1.579Z" transform="translate(-73.956 -261.25)" fill="#f2a214"/>
            <path id="Path_113" data-name="Path 113" d="M84.507,261.527l-6.718,3.138L144.35,407.138c1.4,1.043,2.429,1.6,2.732,1.3.87-.867.8-7.538.444-13.308l-62.5-133.791A3.058,3.058,0,0,0,84.507,261.527Z" transform="translate(-72.676 -261.219)" fill="#ffb41f"/>
            <path id="Path_114" data-name="Path 114" d="M124.246,368.771c3.476,3.145,6.744,5.727,7.329,5.156.659-.663.782-4.674.644-9.095a3.671,3.671,0,0,0-.99-.08C128.377,365.082,125.028,366.056,124.246,368.771Z" transform="translate(-57.17 -226.706)" fill="#333"/>
            <path id="Path_115" data-name="Path 115" d="M132.1,359.115c-1.774-1.938-3.3-3.362-4.636-2.958-1.506.453-1.831,3.9-1.436,6.578-.866-1.6-3.424-3.872-6.151-3.01-1.571.5-2.648,2.558-2.449,2.981l.016.037c.417.894,4.9,5.506,9.09,9.3.782-2.716,4.131-3.689,6.984-4.019a3.671,3.671,0,0,1,.99.08c-.177-5.6-.771-11.86-1.2-12.772l-.176-.379C131.642,355.284,131.764,357.226,132.1,359.115Z" transform="translate(-59.455 -229.975)" fill="#e5a661"/>
            <path id="Path_116" data-name="Path 116" d="M120.949,358.4a3.922,3.922,0,0,0-1.075.177c-1.571.5-2.648,2.558-2.449,2.981l.016.037c.417.894,4.9,5.506,9.09,9.3a4.294,4.294,0,0,1,1.713-2.31Z" transform="translate(-59.455 -228.825)" fill="#efb57b"/>
            <path id="Path_117" data-name="Path 117" d="M97.732,279.412l-7.6-16.275a3.271,3.271,0,0,0-4.345-1.579L75.842,266.2a3.267,3.267,0,0,0-1.577,4.347l7.6,16.273Z" transform="translate(-73.956 -261.25)" fill="#ff3131"/>
            <rect id="Rectangle_27" data-name="Rectangle 27" width="17.515" height="6.821" transform="matrix(0.906, -0.424, 0.424, 0.906, 5.022, 19.397)" fill="#f4f4f4"/>
          </g>
        </g>
      </g>
      <g id="Group_60" data-name="Group 60" transform="translate(264.385 23.909)">
        <path id="Path_118" data-name="Path 118" d="M382.71,93.3,247.1,113.753l52.24,18.593Z" transform="translate(-247.104 -93.303)" fill="#fff"/>
        <path id="Path_119" data-name="Path 119" d="M285.637,132.045l3.032,25.128,81.18-63.87Z" transform="translate(-234.244 -93.303)" fill="#d8d8d8"/>
        <path id="Path_120" data-name="Path 120" d="M301.469,141.437,287.91,157.173,369.09,93.3Z" transform="translate(-233.485 -93.303)" fill="#b2b2b2"/>
        <path id="Path_121" data-name="Path 121" d="M365.7,93.3,330.277,171.6l-32.2-30.16Z" transform="translate(-230.092 -93.303)" fill="#fff"/>
      </g>
      <g id="Group_61" data-name="Group 61" transform="translate(0 39.757)">
        <path id="Path_122" data-name="Path 122" d="M174.078,105.185l-125.2,18.881L97.11,141.232Z" transform="translate(-48.881 -105.185)" fill="#fff"/>
        <path id="Path_123" data-name="Path 123" d="M84.455,140.953l2.8,23.2L162.2,105.185Z" transform="translate(-37.007 -105.185)" fill="#d8d8d8"/>
        <path id="Path_124" data-name="Path 124" d="M99.072,149.624,86.555,164.152,161.5,105.185Z" transform="translate(-36.306 -105.185)" fill="#b2b2b2"/>
        <path id="Path_125" data-name="Path 125" d="M158.371,105.185l-32.7,72.284L95.939,149.624Z" transform="translate(-33.174 -105.185)" fill="#fff"/>
      </g>
      <g id="Group_62" data-name="Group 62" transform="translate(373.451 390.197)">
        <path id="Path_126" data-name="Path 126" d="M422.056,375.058l-7.374-2.161h0l-.636-.368c-5.431-3.134-14.27-3.134-19.7,0l-29.666,15.31c-5.432,3.137-4.556,9.551.878,12.688l1.977,1.14c5.432,3.138,14.273,3.138,19.705,0l17.123-9.886v-3L382.3,398.818a10.878,10.878,0,0,1-9.833,0l-1.977-1.142c-2.712-1.565-2.712-4.109,0-5.675l28.788-16.62a10.877,10.877,0,0,1,9.829,0l.938.54,6.682,3.859c2.712,1.566,2.709,4.111,0,5.675L389.108,401.4h0L363.566,416.15c-5.455,3.149-14.327,3.149-19.782,0l-3.309-1.911c-5.455-3.149-5.455-8.272,0-11.422l41.232-23.805v-3l-47.18,23.348c-8.175,4.72-7.166,13.01,1.008,17.731l3.312,1.91c8.173,4.72,21.478,4.72,29.655,0l42.823-24.723h0l10.342-5.97C427.1,385.169,427.487,378.2,422.056,375.058Z" transform="translate(-328.877 -367.178)" fill="#e0055f"/>
        <path id="Path_127" data-name="Path 127" d="M421.536,374.679l-6.986-4.032h0l-.636-.368c-5.431-3.134-14.27-3.134-19.7,0L365.424,386.9c-5.431,3.137-5.434,8.24,0,11.377l1.977,1.14c5.432,3.138,14.273,3.138,19.705,0l17.123-9.886-4.938-2.85-17.122,9.886a10.878,10.878,0,0,1-9.833,0l-1.977-1.142c-2.712-1.565-2.712-4.109,0-5.675l28.788-16.62a10.878,10.878,0,0,1,9.829,0l.938.54,6.682,3.859c2.712,1.566,2.709,4.111,0,5.675l-27.621,15.948h0L363.434,413.9c-5.455,3.149-14.327,3.149-19.783,0l-3.309-1.911c-5.455-3.149-5.455-8.272,0-11.422l41.232-23.805-4.936-2.85L335.4,397.718c-8.175,4.72-8.175,12.4,0,17.122l3.312,1.91c8.173,4.72,21.478,4.72,29.655,0l42.823-24.723h0l10.342-5.97C426.967,382.919,426.967,377.816,421.536,374.679Z" transform="translate(-328.745 -367.928)" fill="#ff3e7a"/>
      </g>
      <g id="Group_63" data-name="Group 63" transform="translate(39.54 401.836)">
        <path id="Path_128" data-name="Path 128" d="M82.411,383.785l7.374-2.162h0l.635-.367c5.432-3.136,14.273-3.136,19.7,0l29.666,15.31c5.431,3.136,4.555,9.551-.878,12.687l-1.978,1.142c-5.432,3.137-14.273,3.137-19.7,0l-17.123-9.886v-3l22.059,10.037a10.872,10.872,0,0,0,9.83,0l1.979-1.142c2.71-1.565,2.71-4.111,0-5.675l-28.788-16.62a10.88,10.88,0,0,0-9.83,0l-.938.54-6.682,3.857c-2.712,1.566-2.71,4.111,0,5.675l27.621,15.948h0L140.9,424.876c5.455,3.149,14.329,3.149,19.782,0l3.309-1.91c5.455-3.15,5.455-8.273,0-11.422l-41.234-23.806v-3l47.181,23.348c8.175,4.72,7.168,13.011-1.008,17.731l-3.312,1.911c-8.175,4.72-21.478,4.72-29.655,0L93.141,403h0L82.8,397.032C77.368,393.9,76.979,386.921,82.411,383.785Z" transform="translate(-78.526 -375.904)" fill="#0e9e67"/>
        <path id="Path_129" data-name="Path 129" d="M82.749,383.407l6.986-4.033h0l.635-.367c5.432-3.136,14.273-3.136,19.7,0l28.788,16.621c5.431,3.136,5.432,8.24,0,11.376l-1.978,1.142c-5.432,3.137-14.273,3.137-19.7,0l-17.123-9.886,4.936-2.85,17.123,9.886a10.872,10.872,0,0,0,9.83,0l1.979-1.142c2.71-1.565,2.71-4.111,0-5.675l-28.788-16.62a10.88,10.88,0,0,0-9.83,0l-.938.54-6.682,3.857c-2.712,1.566-2.71,4.111,0,5.675l27.621,15.948h0l25.542,14.748c5.455,3.149,14.329,3.149,19.782,0l3.309-1.91c5.455-3.15,5.455-8.273,0-11.422l-41.234-23.806,4.938-2.849,41.235,23.805c8.176,4.72,8.176,12.4,0,17.122l-3.312,1.911c-8.175,4.72-21.478,4.72-29.655,0L93.091,400.754h0l-10.342-5.971C77.318,391.647,77.318,386.542,82.749,383.407Z" transform="translate(-78.476 -376.655)" fill="#3bd198"/>
      </g>
    </g>
  </g>
</svg>
