<svg xmlns="http://www.w3.org/2000/svg" xmlns:xlink="http://www.w3.org/1999/xlink" width="1349" height="785" viewBox="0 0 1349 785">
  <defs>
    <clipPath id="clip-path">
      <rect id="Rectangle_4" data-name="Rectangle 4" width="1349" height="785" fill="#fff"/>
    </clipPath>
    <linearGradient id="linear-gradient" x1="0.5" x2="0.5" y2="1" gradientUnits="objectBoundingBox">
      <stop offset="0" stop-color="#f7ffff"/>
      <stop offset="1" stop-color="#e3dbdb"/>
    </linearGradient>
    <linearGradient id="linear-gradient-2" y1="0.5" x2="1" y2="0.5" gradientUnits="objectBoundingBox">
      <stop offset="0" stop-color="#d1d5de"/>
      <stop offset="1" stop-color="#dbdbdb"/>
    </linearGradient>
    <linearGradient id="linear-gradient-5" y1="0.5" x2="1" y2="0.5" gradientUnits="objectBoundingBox">
      <stop offset="0" stop-color="#e7eeff"/>
      <stop offset="1" stop-color="#dbdbdb"/>
    </linearGradient>
  </defs>
  <g id="pattern" opacity="0.6" clip-path="url(#clip-path)">
    <path id="Path_31" data-name="Path 31" d="M0,0H1349V785H0Z" fill="url(#linear-gradient)"/>
    <path id="Path_2" data-name="Path 2" d="M600.879,822.046c-13.553-33.928-9.826-71.18-2.664-106.562s17.632-70.629,17.08-106.555c-.9-58.676-33.131-116.5-85.76-153.036s-124.678-50.932-190.184-37.64c-41.425,8.407-80.368,27.208-122.863,28.737-43.632,1.569-85.093-15.254-128.045-22.134C-13.538,408.52-122.846,453.3-179.911,528.831s-62.486,176.855-20.721,259.66,127.383,146.32,225.438,175.73,207.178,26,305.541-2.61c48.231-14.03,94.155-33.883,143.071-45.976s102.938-15.879,149.43,2.073L690.376,886.6C649.211,885.633,614.432,855.972,600.879,822.046Z" transform="translate(-39.42 -292.57)" opacity="0.2" fill="url(#linear-gradient-2)" style="mix-blend-mode: multiply;isolation: isolate"/>
    <path id="Path_3" data-name="Path 3" d="M1220.834,139.856c-13.555-33.928-9.828-71.18-2.666-106.562s17.632-70.629,17.08-106.555c-.9-58.676-33.132-116.5-85.76-153.034S1024.81-277.229,959.3-263.935c-41.425,8.407-80.368,27.207-122.863,28.735-43.632,1.569-85.093-15.253-128.045-22.133-101.981-16.337-211.289,28.44-268.354,103.975S377.558,23.5,419.321,106.3,546.7,252.622,644.759,282.033s207.178,26,305.541-2.611c48.231-14.029,94.155-33.883,143.071-45.976s102.938-15.879,149.43,2.075l67.527-31.114C1269.166,203.444,1234.385,173.783,1220.834,139.856Z" transform="translate(313.055 -153.047)" opacity="0.2" fill="url(#linear-gradient-2)" style="mix-blend-mode: multiply;isolation: isolate"/>
    <path id="Path_4" data-name="Path 4" d="M891.815,0a230.176,230.176,0,0,1-54.23,109.212C781.9,171.741,689.573,208.009,599.01,202.909c-9.623-.534-19.318-1.491-29.048-2.637-50.866-5.948-102.7-16.792-148.336,1.742-38.743,15.741-63.511,49.514-98.477,70.935-45.74,28.029-107.308,32.611-160.513,17.655-53.187-14.956-98.261-47.787-131.195-87.194C20.055,189.789,9.983,175.351,0,160.865V0Z" transform="translate(0 0.003)" opacity="0.2" fill="url(#linear-gradient-2)" style="mix-blend-mode: multiply;isolation: isolate"/>
    <path id="Path_5" data-name="Path 5" d="M907.38,0a124.9,124.9,0,0,1-38.887,21.453c-26.279,8.867-55.9,10.578-79.753,23.65-31.423,17.216-46.028,50.314-53.942,81.937-7.9,31.638-11.494,64.878-29.354,93.252-37.017,58.867-129.054,79.112-202.026,57.768-48.582-14.218-89.16-42.875-121.878-77.794a380.369,380.369,0,0,1-43.276-56.2C310.133,99.738,289.5,50.915,250.921,13.046A166.446,166.446,0,0,0,235.92,0Z" transform="translate(188.421 0.003)" fill="#f8e6cb" style="mix-blend-mode: overlay;isolation: isolate"/>
    <path id="Path_6" data-name="Path 6" d="M1042.168,640.207V241.274L674.391,129.238,384.18,241.274a224.222,224.222,0,0,0,12.339,49.655c20.523,54.818,65.04,102.825,121.482,132.2a268.02,268.02,0,0,0,97.7,29.253c45.2,4.41,96.157-.91,131,24.592,20.954,15.348,31.135,38.779,44.193,59.762,37.2,59.7,107.255,105.4,184.939,110.2A209.764,209.764,0,0,0,1042.168,640.207Z" transform="translate(306.832 184.807)" fill="#dae5ff" style="mix-blend-mode: overlay;isolation: isolate"/>
    <path id="Path_7" data-name="Path 7" d="M1035.356,358.094H161.33a219.574,219.574,0,0,0,17.843,62.869c21.08,46.956,63.241,91.714,120.457,98.839,24.678,3.076,48.924-1.1,72.4-8.694,33.635-10.876,71.317-2.009,94.394,21.956a155.1,155.1,0,0,0,60.795,38.559c43.6,15.082,95.149,11.394,135.35-9.652,11.925-6.246,22.861-13.889,33.419-22.018,30.038-23.1,57.036-50.126,94.862-60.17,39.337-10.421,82.325.047,122.633-6.984,59.086-10.311,102.506-57.345,119.665-107.737Q1034.331,361.6,1035.356,358.094Z" transform="translate(149.893 214.991)" fill="url(#linear-gradient-5)" style="mix-blend-mode: soft-light;isolation: isolate"/>
    <path id="Path_28" data-name="Path 28" d="M53.867,1.681c29.75.928,54.619,28.957,55.548,62.6s-22.436,60.169-52.186,59.24S2.61,94.567,1.681,60.921,24.117.753,53.867,1.681Z" transform="translate(278.168 284.885) rotate(-77.258)" fill="#f8e6cb" style="mix-blend-mode: overlay;isolation: isolate"/>
    <path id="Path_29" data-name="Path 29" d="M19.866,1.331c10.972.735,20.462,10.08,21.2,20.871S33.5,41.146,22.529,40.41,2.067,30.331,1.331,19.54,8.894.6,19.866,1.331Z" transform="matrix(0.749, -0.663, 0.663, 0.749, 1045.052, 404.909)" fill="#f8e6cb" style="mix-blend-mode: overlay;isolation: isolate"/>
    <path id="Path_8" data-name="Path 8" d="M112.719,399.858c0,5.071-4.711,9.181-10.522,9.181s-10.522-4.11-10.522-9.181,4.711-9.181,10.522-9.181S112.719,394.787,112.719,399.858Z" transform="translate(73.218 222.439)" fill="#f8e6cb" style="mix-blend-mode: overlay;isolation: isolate"/>
    <path id="Path_30" data-name="Path 30" d="M53.867,1.681c29.75.928,54.619,28.957,55.548,62.6s-22.436,60.169-52.186,59.24S2.61,94.567,1.681,60.921,24.117.753,53.867,1.681Z" transform="translate(237.911 573.322) rotate(-77.258)" fill="#484848" style="mix-blend-mode: overlay;isolation: isolate"/>
    <path id="Path_9" data-name="Path 9" d="M668.3,216.925c0,5.071-4.711,9.181-10.522,9.181S647.26,222,647.26,216.925s4.711-9.181,10.522-9.181S668.3,211.854,668.3,216.925Z" transform="translate(516.945 118.283)" fill="#f8e6cb" style="mix-blend-mode: overlay;isolation: isolate"/>
    <g id="Group_1" data-name="Group 1" transform="translate(159.538 -57.164)">
      <path id="Path_10" data-name="Path 10" d="M88.7,1.655c74.76-.078,148.867,29.962,197.012,79.865,41.753,43.275,63.256,98.553,99.072,145.706s96.3,88.508,160.038,78.151c43.763-7.111,78.548-37.564,99.128-72.006s29.491-73.089,40.51-110.721,25.016-75.837,53.534-105.659c36.151-37.8,94.844-58.209,150.885-52.456" transform="translate(-88.698 36.425)" fill="none" stroke="#d8d8d8" stroke-miterlimit="10" stroke-width="1"/>
      <path id="Path_11" data-name="Path 11" d="M102.619-.727C172.7-.8,242.169,27.358,287.3,74.138c39.139,40.568,59.3,92.386,92.872,136.588s90.273,82.968,150.023,73.26c41.022-6.667,73.632-35.214,92.923-67.5s27.646-68.516,37.973-103.792,23.451-71.089,50.185-99.046c33.889-35.439,88.906-54.567,141.442-49.173" transform="translate(-77.58 36.425)" fill="none" stroke="#d8d8d8" stroke-miterlimit="10" stroke-width="1"/>
      <path id="Path_12" data-name="Path 12" d="M116.541-3.111c65.4-.069,130.232,26.212,172.35,69.868,36.527,37.859,55.34,86.216,86.672,127.467s84.246,77.43,140.006,68.37c38.285-6.221,68.716-32.863,86.719-62.991s25.8-63.941,35.439-96.863S659.612,36.4,684.562,10.306c31.624-33.071,82.971-50.923,132-45.89" transform="translate(-66.461 36.425)" fill="none" stroke="#d8d8d8" stroke-miterlimit="10" stroke-width="1"/>
      <path id="Path_13" data-name="Path 13" d="M130.462-5.495c60.723-.064,120.915,24.336,160.02,64.87,33.914,35.151,51.381,80.049,80.472,118.349s78.219,71.89,129.99,63.478c35.545-5.775,63.8-30.512,80.515-58.486s23.953-59.366,32.9-89.931,20.32-61.6,43.483-85.823c29.363-30.706,77.037-47.28,122.556-42.607" transform="translate(-55.342 36.425)" fill="none" stroke="#d8d8d8" stroke-miterlimit="10" stroke-width="1"/>
      <path id="Path_14" data-name="Path 14" d="M144.383-7.877c56.045-.06,111.6,22.461,147.692,59.87,31.3,32.444,47.42,73.883,74.269,109.231s72.195,66.351,119.975,58.586c32.808-5.331,58.885-28.161,74.312-53.978s22.107-54.793,30.369-83S609.752,25.977,631.131,3.62c27.1-28.341,71.1-43.638,113.113-39.324" transform="translate(-44.224 36.425)" fill="none" stroke="#d8d8d8" stroke-miterlimit="10" stroke-width="1"/>
    </g>
    <g id="Group_3" data-name="Group 3" transform="translate(-79.929 313.299)">
      <path id="Path_21" data-name="Path 21" d="M-18.159,203.243c-9.033,27.436,7.049,57.1,30.365,77.122s53.158,32.99,80.582,48.555,53.938,35.427,64.315,62.5c18.46,48.165-19.23,97.189-37.2,145.5-27.189,73.09-6,158.3,53.46,214.988" transform="translate(63.388 -197.579)" fill="none" stroke="#d8d8d8" stroke-miterlimit="10" stroke-width="1"/>
      <path id="Path_22" data-name="Path 22" d="M-30.023,206.852c-9.031,27.436,7.051,57.1,30.365,77.122s53.16,32.99,80.584,48.555,53.937,35.427,64.313,62.5c18.462,48.166-19.23,97.189-37.2,145.5-27.189,73.09-6,158.3,53.46,214.988" transform="translate(53.913 -195.524)" fill="none" stroke="#d8d8d8" stroke-miterlimit="10" stroke-width="1"/>
      <path id="Path_23" data-name="Path 23" d="M-41.886,210.461c-9.033,27.436,7.049,57.1,30.363,77.12s53.16,32.991,80.584,48.556,53.938,35.427,64.313,62.5c18.462,48.165-19.228,97.189-37.2,145.5-27.189,73.09-6,158.3,53.46,214.988" transform="translate(44.438 -193.469)" fill="none" stroke="#d8d8d8" stroke-miterlimit="10" stroke-width="1"/>
    </g>
    <g id="Group_4" data-name="Group 4" transform="translate(985.205 -293.248)">
      <path id="Path_24" data-name="Path 24" d="M575.834-186.857c4.561,28.267,33.1,49.638,63.739,59.638s63.952,11.234,96.265,15.7,65.8,13.18,87.917,34.215C863.1-39.876,851.571,18.291,857.718,68.8c9.3,76.414,68.432,146.7,149.2,177.336" transform="translate(-525.306 186.857)" fill="none" stroke="#d8d8d8" stroke-miterlimit="10" stroke-width="1"/>
      <path id="Path_25" data-name="Path 25" d="M566.47-178.728c4.562,28.267,33.1,49.638,63.739,59.638s63.952,11.234,96.265,15.7,65.8,13.18,87.915,34.215c39.349,37.426,27.818,95.593,33.963,146.1,9.3,76.414,68.434,146.7,149.2,177.336" transform="translate(-532.785 191.485)" fill="none" stroke="#d8d8d8" stroke-miterlimit="10" stroke-width="1"/>
      <path id="Path_26" data-name="Path 26" d="M557.106-170.6c4.561,28.266,33.1,49.638,63.739,59.638S684.8-99.728,717.11-95.26s65.8,13.18,87.915,34.215c39.349,37.426,27.818,95.593,33.963,146.1,9.3,76.414,68.434,146.7,149.2,177.336" transform="translate(-540.263 196.114)" fill="none" stroke="#d8d8d8" stroke-miterlimit="10" stroke-width="1"/>
      <path id="Path_27" data-name="Path 27" d="M547.742-162.47c4.561,28.266,33.1,49.638,63.739,59.638s63.952,11.234,96.265,15.7,65.8,13.181,87.915,34.217c39.349,37.426,27.818,95.593,33.962,146.1,9.3,76.414,68.434,146.7,149.2,177.336" transform="translate(-547.742 200.742)" fill="none" stroke="#d8d8d8" stroke-miterlimit="10" stroke-width="1"/>
    </g>
  </g>
</svg>
